<svg xmlns="http://www.w3.org/2000/svg" width="1100" height="760" viewBox="0 0 1100 760" role="img" aria-labelledby="title desc"><title id="title">PRJEB3190 PCA by condition</title><desc id="desc">Within-study log2(TPM + 1) PCA; descriptive view of biological samples.</desc><rect width="100%" height="100%" fill="#ffffff"/><style>text{font-family:Inter,Segoe UI,Arial,sans-serif;fill:#172033}.axis{stroke:#94a3b8;stroke-width:1}.grid{stroke:#e2e8f0;stroke-width:1}.small{font-size:11px}.label{font-size:13px}.title{font-size:22px;font-weight:700}.subtitle{font-size:12px;fill:#64748b}</style><text class="title" x="90" y="38">PRJEB3190 PCA by condition</text><text class="subtitle" x="90" y="60">Within-study log2(TPM + 1) PCA; descriptive view of biological samples.</text><line class="grid" x1="90.0" y1="90" x2="90.0" y2="680"/><line class="grid" x1="90" y1="90.0" x2="850" y2="90.0"/><text class="small" text-anchor="middle" x="90.0" y="702">-49.6</text><text class="small" text-anchor="end" x="80" y="94.0">48.7</text><line class="grid" x1="242.0" y1="90" x2="242.0" y2="680"/><line class="grid" x1="90" y1="208.0" x2="850" y2="208.0"/><text class="small" text-anchor="middle" x="242.0" y="702">-29.4</text><text class="small" text-anchor="end" x="80" y="212.0">32.1</text><line class="grid" x1="394.0" y1="90" x2="394.0" y2="680"/><line class="grid" x1="90" y1="326.0" x2="850" y2="326.0"/><text class="small" text-anchor="middle" x="394.0" y="702">-9.3</text><text class="small" text-anchor="end" x="80" y="330.0">15.5</text><line class="grid" x1="546.0" y1="90" x2="546.0" y2="680"/><line class="grid" x1="90" y1="444.0" x2="850" y2="444.0"/><text class="small" text-anchor="middle" x="546.0" y="702">10.8</text><text class="small" text-anchor="end" x="80" y="448.0">-1.1</text><line class="grid" x1="698.0" y1="90" x2="698.0" y2="680"/><line class="grid" x1="90" y1="562.0" x2="850" y2="562.0"/><text class="small" text-anchor="middle" x="698.0" y="702">30.9</text><text class="small" text-anchor="end" x="80" y="566.0">-17.7</text><line class="grid" x1="850.0" y1="90" x2="850.0" y2="680"/><line class="grid" x1="90" y1="680.0" x2="850" y2="680.0"/><text class="small" text-anchor="middle" x="850.0" y="702">51.0</text><text class="small" text-anchor="end" x="80" y="684.0">-34.3</text><line class="axis" x1="90" y1="680" x2="850" y2="680"/><line class="axis" x1="90" y1="90" x2="90" y2="680"/><text class="label" text-anchor="middle" x="470.0" y="738">PC1 (42.4%)</text><text class="label" text-anchor="middle" transform="translate(24 385.0) rotate(-90)">PC2 (20.4%)</text><circle cx="218.43" cy="130.69" r="5" fill="#0f766e" fill-opacity="0.82" stroke="#ffffff" stroke-width="1"><title>PRJEB3190 | schistosomulum_0h_r1 | schistosomulum_0h</title></circle><circle cx="200.78" cy="191.40" r="5" fill="#0f766e" fill-opacity="0.82" stroke="#ffffff" stroke-width="1"><title>PRJEB3190 | schistosomulum_0h_r2 | schistosomulum_0h</title></circle><circle cx="430.88" cy="639.31" r="5" fill="#2563eb" fill-opacity="0.82" stroke="#ffffff" stroke-width="1"><title>PRJEB3190 | schistosomulum_12h_r1 | schistosomulum_12h</title></circle><circle cx="292.50" cy="529.71" r="5" fill="#2563eb" fill-opacity="0.82" stroke="#ffffff" stroke-width="1"><title>PRJEB3190 | schistosomulum_12h_r2 | schistosomulum_12h</title></circle><circle cx="438.80" cy="571.71" r="5" fill="#2563eb" fill-opacity="0.82" stroke="#ffffff" stroke-width="1"><title>PRJEB3190 | schistosomulum_12h_r3 | schistosomulum_12h</title></circle><circle cx="579.01" cy="556.15" r="5" fill="#7c3aed" fill-opacity="0.82" stroke="#ffffff" stroke-width="1"><title>PRJEB3190 | schistosomulum_24h_r1 | schistosomulum_24h</title></circle><circle cx="525.65" cy="632.55" r="5" fill="#7c3aed" fill-opacity="0.82" stroke="#ffffff" stroke-width="1"><title>PRJEB3190 | schistosomulum_24h_r2 | schistosomulum_24h</title></circle><circle cx="579.53" cy="516.95" r="5" fill="#7c3aed" fill-opacity="0.82" stroke="#ffffff" stroke-width="1"><title>PRJEB3190 | schistosomulum_24h_r3 | schistosomulum_24h</title></circle><circle cx="207.18" cy="287.44" r="5" fill="#db2777" fill-opacity="0.82" stroke="#ffffff" stroke-width="1"><title>PRJEB3190 | schistosomulum_3h_r1 | schistosomulum_3h</title></circle><circle cx="142.41" cy="395.06" r="5" fill="#db2777" fill-opacity="0.82" stroke="#ffffff" stroke-width="1"><title>PRJEB3190 | schistosomulum_3h_r2 | schistosomulum_3h</title></circle><circle cx="696.89" cy="381.08" r="5" fill="#db2777" fill-opacity="0.82" stroke="#ffffff" stroke-width="1"><title>PRJEB3190 | schistosomulum_3h_r3 | schistosomulum_3h</title></circle><circle cx="649.29" cy="454.61" r="5" fill="#ea580c" fill-opacity="0.82" stroke="#ffffff" stroke-width="1"><title>PRJEB3190 | schistosomulum_48h_r1 | schistosomulum_48h</title></circle><circle cx="176.38" cy="495.49" r="5" fill="#ea580c" fill-opacity="0.82" stroke="#ffffff" stroke-width="1"><title>PRJEB3190 | schistosomulum_48h_r2 | schistosomulum_48h</title></circle><circle cx="790.60" cy="245.49" r="5" fill="#ea580c" fill-opacity="0.82" stroke="#ffffff" stroke-width="1"><title>PRJEB3190 | schistosomulum_48h_r3 | schistosomulum_48h</title></circle><circle cx="275.46" cy="588.31" r="5" fill="#65a30d" fill-opacity="0.82" stroke="#ffffff" stroke-width="1"><title>PRJEB3190 | schistosomulum_6h_r1 | schistosomulum_6h</title></circle><circle cx="346.50" cy="464.23" r="5" fill="#65a30d" fill-opacity="0.82" stroke="#ffffff" stroke-width="1"><title>PRJEB3190 | schistosomulum_6h_r2 | schistosomulum_6h</title></circle><circle cx="431.18" cy="580.13" r="5" fill="#65a30d" fill-opacity="0.82" stroke="#ffffff" stroke-width="1"><title>PRJEB3190 | schistosomulum_6h_r3 | schistosomulum_6h</title></circle><circle cx="763.00" cy="350.11" r="5" fill="#0891b2" fill-opacity="0.82" stroke="#ffffff" stroke-width="1"><title>PRJEB3190 | schistosomulum_72h_r1 | schistosomulum_72h</title></circle><circle cx="745.99" cy="359.52" r="5" fill="#0891b2" fill-opacity="0.82" stroke="#ffffff" stroke-width="1"><title>PRJEB3190 | schistosomulum_72h_r2 | schistosomulum_72h</title></circle><circle cx="797.59" cy="354.89" r="5" fill="#0891b2" fill-opacity="0.82" stroke="#ffffff" stroke-width="1"><title>PRJEB3190 | schistosomulum_72h_r3 | schistosomulum_72h</title></circle><circle cx="885" cy="90" r="6" fill="#0f766e"/><text class="small" x="899" y="94">schistosomulum_0h</text><circle cx="885" cy="115" r="6" fill="#2563eb"/><text class="small" x="899" y="119">schistosomulum_12h</text><circle cx="885" cy="140" r="6" fill="#7c3aed"/><text class="small" x="899" y="144">schistosomulum_24h</text><circle cx="885" cy="165" r="6" fill="#db2777"/><text class="small" x="899" y="169">schistosomulum_3h</text><circle cx="885" cy="190" r="6" fill="#ea580c"/><text class="small" x="899" y="194">schistosomulum_48h</text><circle cx="885" cy="215" r="6" fill="#65a30d"/><text class="small" x="899" y="219">schistosomulum_6h</text><circle cx="885" cy="240" r="6" fill="#0891b2"/><text class="small" x="899" y="244">schistosomulum_72h</text></svg>